<svg width="566" height="566" viewBox="0 0 566 566" fill="none" xmlns="http://www.w3.org/2000/svg">
<g clip-path="url(#clip0_122_25)">
<g opacity="0.85">
<path d="M486.57 129.172L38.0752 211.201L80.4361 442.811L528.931 360.783L486.57 129.172Z" fill="#96A6E7"/>
</g>
<path d="M487.342 133.396L475.913 70.9055L27.418 152.934L38.8541 215.462L83.6288 207.272L124.445 430.436L79.6701 438.625L91.3523 502.498L539.847 420.47L528.158 356.559L483.383 364.748L442.567 141.585L487.342 133.396ZM441.427 107.263C440.805 103.862 443.065 100.59 446.466 99.9682L454.614 98.478C458.015 97.856 461.286 100.116 461.908 103.517L464.649 118.504C465.271 121.905 463.012 125.177 459.611 125.799L451.463 127.289C448.062 127.911 444.79 125.651 444.168 122.25L441.427 107.263ZM75.2812 189.718C75.9032 193.12 73.6434 196.391 70.2423 197.013L62.0946 198.503C58.6935 199.125 55.422 196.866 54.7999 193.464L52.0588 178.477C51.4367 175.076 53.6966 171.805 57.0977 171.183L65.2454 169.692C68.6465 169.07 71.918 171.33 72.5401 174.731L75.2812 189.718ZM125.585 464.758C126.207 468.159 123.947 471.431 120.546 472.053L112.399 473.543C108.997 474.165 105.726 471.905 105.104 468.504L102.356 453.479C101.734 450.078 103.994 446.807 107.395 446.185L115.542 444.694C118.944 444.072 122.215 446.332 122.837 449.733L125.585 464.758ZM491.724 382.265C491.102 378.864 493.362 375.592 496.763 374.97L504.911 373.48C508.312 372.858 511.583 375.118 512.205 378.519L514.947 393.506C515.569 396.907 513.309 400.179 509.908 400.801L501.76 402.291C498.359 402.913 495.087 400.653 494.465 397.252L491.724 382.265ZM398.147 115.179C397.525 111.778 399.785 108.506 403.186 107.884L411.334 106.394C414.735 105.772 418.007 108.032 418.629 111.433L421.37 126.42C421.992 129.821 419.732 133.093 416.331 133.715L408.183 135.205C404.782 135.827 401.51 133.567 400.888 130.166L398.147 115.179ZM354.905 123.088C354.283 119.686 356.543 116.415 359.944 115.793L368.091 114.303C371.493 113.681 374.764 115.941 375.386 119.342L378.127 134.329C378.749 137.73 376.489 141.001 373.088 141.623L364.941 143.114C361.54 143.736 358.268 141.476 357.646 138.075L354.905 123.088ZM311.625 131.003C311.003 127.602 313.263 124.331 316.664 123.709L324.812 122.218C328.213 121.596 331.484 123.856 332.106 127.257L334.848 142.245C335.47 145.646 333.21 148.917 329.809 149.539L321.661 151.029C318.26 151.651 314.988 149.392 314.366 145.99L311.625 131.003ZM268.383 138.912C267.761 135.511 270.021 132.24 273.422 131.618L281.569 130.127C284.97 129.505 288.242 131.765 288.864 135.166L291.605 150.153C292.227 153.555 289.967 156.826 286.566 157.448L278.419 158.938C275.018 159.56 271.746 157.3 271.124 153.899L268.383 138.912ZM225.103 146.828C224.481 143.427 226.741 140.155 230.142 139.533L238.29 138.043C241.691 137.421 244.962 139.681 245.584 143.082L248.325 158.069C248.947 161.47 246.688 164.742 243.287 165.364L235.139 166.854C231.738 167.476 228.466 165.216 227.844 161.815L225.103 146.828ZM181.861 154.737C181.239 151.336 183.499 148.064 186.9 147.442L195.047 145.952C198.448 145.33 201.72 147.59 202.342 150.991L205.083 165.978C205.705 169.379 203.445 172.651 200.044 173.273L191.896 174.763C188.495 175.385 185.224 173.125 184.602 169.724L181.861 154.737ZM138.581 162.653C137.959 159.252 140.219 155.98 143.62 155.358L151.768 153.868C155.169 153.246 158.44 155.506 159.062 158.907L161.803 173.894C162.425 177.295 160.165 180.566 156.764 181.189L148.617 182.679C145.216 183.301 141.944 181.041 141.322 177.64L138.581 162.653ZM95.3385 170.562C94.7165 167.16 96.9764 163.889 100.377 163.267L108.525 161.777C111.926 161.155 115.198 163.414 115.82 166.816L118.561 181.803C119.183 185.204 116.923 188.475 113.522 189.097L105.374 190.588C101.973 191.21 98.7017 188.95 98.0797 185.549L95.3385 170.562ZM168.865 456.842C169.487 460.243 167.227 463.515 163.826 464.137L155.678 465.627C152.277 466.249 149.006 463.989 148.384 460.588L145.636 445.564C145.014 442.163 147.273 438.891 150.675 438.269L158.822 436.779C162.223 436.157 165.495 438.417 166.117 441.818L168.865 456.842ZM212.107 448.933C212.729 452.334 210.469 455.606 207.068 456.228L198.921 457.718C195.52 458.34 192.248 456.08 191.626 452.679L188.878 437.655C188.256 434.254 190.516 430.982 193.917 430.36L202.065 428.87C205.466 428.248 208.737 430.508 209.359 433.909L212.107 448.933ZM255.387 441.018C256.009 444.419 253.749 447.69 250.348 448.312L242.2 449.802C238.799 450.424 235.528 448.165 234.906 444.764L232.158 429.739C231.536 426.338 233.796 423.066 237.197 422.444L245.344 420.954C248.745 420.332 252.017 422.592 252.639 425.993L255.387 441.018ZM298.629 433.109C299.251 436.51 296.992 439.781 293.59 440.403L285.443 441.894C282.042 442.516 278.77 440.256 278.148 436.855L275.4 421.83C274.778 418.429 277.038 415.157 280.439 414.535L288.587 413.045C291.988 412.423 295.259 414.683 295.881 418.084L298.629 433.109ZM341.909 425.193C342.531 428.594 340.271 431.866 336.87 432.488L328.723 433.978C325.321 434.6 322.05 432.34 321.428 428.939L318.68 413.914C318.058 410.513 320.318 407.242 323.719 406.62L331.866 405.129C335.268 404.507 338.539 406.767 339.161 410.168L341.909 425.193ZM385.151 417.284C385.774 420.685 383.514 423.957 380.113 424.579L371.965 426.069C368.564 426.691 365.292 424.431 364.67 421.03L361.922 406.005C361.3 402.604 363.56 399.333 366.961 398.711L375.109 397.221C378.51 396.598 381.781 398.858 382.404 402.259L385.151 417.284ZM428.431 409.368C429.053 412.769 426.793 416.041 423.392 416.663L415.245 418.153C411.844 418.775 408.572 416.515 407.95 413.114L405.202 398.09C404.58 394.689 406.84 391.417 410.241 390.795L418.389 389.305C421.79 388.683 425.061 390.943 425.683 394.344L428.431 409.368ZM471.674 401.459C472.296 404.86 470.036 408.132 466.635 408.754L458.487 410.244C455.086 410.866 451.814 408.606 451.192 405.205L448.444 390.181C447.822 386.78 450.082 383.508 453.483 382.886L461.631 381.396C465.032 380.774 468.304 383.034 468.926 386.435L471.674 401.459ZM468.508 367.469L139.313 427.678L98.4971 204.514L427.692 144.306L468.508 367.469Z" fill="url(#paint0_linear_122_25)"/>
<path d="M29.8848 152.483L475.913 70.9054" stroke="#757575" stroke-width="0.9587" stroke-miterlimit="10"/>
<path d="M429.056 144.79L99.8604 204.999L140.676 428.163L469.872 367.954L429.056 144.79Z" fill="url(#paint1_linear_122_25)"/>
</g>
<defs>
<linearGradient id="paint0_linear_122_25" x1="121.991" y1="370.17" x2="365.536" y2="244.378" gradientUnits="userSpaceOnUse">
<stop stop-color="#424242"/>
<stop offset="0.3935" stop-color="#44545B"/>
<stop offset="0.5171" stop-color="#455A64"/>
<stop offset="0.7406" stop-color="#445157"/>
<stop offset="1" stop-color="#424242"/>
</linearGradient>
<linearGradient id="paint1_linear_122_25" x1="156.247" y1="371.236" x2="366.492" y2="232.656" gradientUnits="userSpaceOnUse">
<stop stop-color="#FFCC80" stop-opacity="0"/>
<stop offset="0.4864" stop-color="#FFCC80" stop-opacity="0.18"/>
<stop offset="1" stop-color="#FFCC80" stop-opacity="0"/>
</linearGradient>
<clipPath id="clip0_122_25">
<rect width="486.33" height="486.33" fill="white" transform="translate(0 87.497) rotate(-10.3647)"/>
</clipPath>
</defs>
</svg>
