<svg width="820" height="820" viewBox="0 0 820 820" fill="none" xmlns="http://www.w3.org/2000/svg">
<g clip-path="url(#clip0_122_12)">
<path d="M320.499 315.776L294.225 380.552C294.225 380.552 300.291 382.13 311.317 387.834C322.327 393.489 331.293 406.589 331.293 406.589C331.293 406.589 404.813 375.911 404.346 374.457C403.879 373.004 363.644 333.447 363.644 333.447L324.148 314.657L320.499 315.776Z" fill="#B0B0B0"/>
<path d="M331.574 468.177L313.754 477.591C313.754 477.591 302.605 495.123 307.106 501.48C310.941 506.929 372.23 538.652 413.494 556.125C463.664 577.365 557.392 607.911 638.819 615.313C715.792 622.328 760.863 613.725 776.857 607.944C791.317 602.71 794.382 591.624 787.899 589.912C781.417 588.2 567.252 510.516 567.252 510.516L331.574 468.177Z" fill="#B0B0B0"/>
<path d="M363.58 333.414L327.252 400.833C327.252 400.833 336.375 415.753 330.631 434.969C324.871 454.136 313.558 477.814 313.558 477.814C313.558 477.814 390.042 524.057 472.368 552.388C588.666 592.464 666.028 603.684 716.363 602.315C762.884 601.05 789.74 590.817 789.74 590.817C789.74 590.817 723.313 537.281 656.88 494.704C614.626 467.661 486.277 394.738 445.389 373.777C404.549 352.8 363.58 333.414 363.58 333.414Z" fill="#E0E0E0"/>
<path d="M70.8147 250.306L54.1888 243.142C54.1888 243.142 39.0151 280.086 48.0988 292.72C56.0096 303.7 124.604 329.549 186.359 353.907C236.289 373.567 276.274 390.222 285.52 389.389C296.393 388.461 300.063 377.928 300.063 377.928L70.8147 250.306Z" fill="#474C4F"/>
<path d="M91.3188 195.187C76.6937 196.413 56.5963 230.342 51.5334 252.012C46.4705 273.681 60.913 281.868 80.9333 290.614C90.1909 294.641 299.848 378.424 299.848 378.424C299.848 378.424 311.171 358.271 317.468 345.932C324.935 331.08 333.705 316.29 332.032 311.75C329.483 304.979 232.646 261.428 195.766 241.798C152.262 218.684 103.978 194.166 91.3188 195.187Z" fill="#5E6367"/>
<path d="M112.807 236.279C107.459 233.775 101.064 235.83 96.7315 242.139C92.447 248.433 94.4512 257.997 102.048 260.848C109.645 263.698 117.754 259.328 119.947 253.012C122.124 246.647 119.035 239.195 112.807 236.279Z" fill="#B0B0B0"/>
<path d="M287.268 317.314C279.96 314.532 273.274 319.673 271.524 325.206C269.759 330.69 271.589 338.547 278.014 341.079C284.44 343.611 291.33 338.938 293.495 333.7C296.04 327.483 293.294 319.601 287.268 317.314Z" fill="#B0B0B0"/>
</g>
<defs>
<clipPath id="clip0_122_12">
<rect width="651.329" height="651.329" fill="white" transform="translate(0 199.249) rotate(-17.813)"/>
</clipPath>
</defs>
</svg>
