<svg width="835" height="533" viewBox="0 0 835 533" fill="none" xmlns="http://www.w3.org/2000/svg">
<g filter="url(#filter0_d_122_24)">
<path d="M22.8826 43.1101C24.4795 17.7553 46.3285 -1.50434 71.6834 0.0925453L790.971 45.3943C816.326 46.9912 835.586 68.8402 833.989 94.1951L811.199 456.047C809.602 481.401 787.753 500.661 762.398 499.064L43.1101 453.762C17.7554 452.165 -1.50432 430.316 0.0925424 404.962L22.8826 43.1101ZM720.307 193.733C685.382 193.733 657.068 222.047 657.068 256.972C657.068 291.898 685.382 320.212 720.307 320.212C755.233 320.211 783.546 291.898 783.546 256.972C783.546 222.047 755.233 193.733 720.307 193.733Z" fill="#D6A071"/>
</g>
<defs>
<filter id="filter0_d_122_24" x="0" y="0" width="834.082" height="532.157" filterUnits="userSpaceOnUse" color-interpolation-filters="sRGB">
<feFlood flood-opacity="0" result="BackgroundImageFix"/>
<feColorMatrix in="SourceAlpha" type="matrix" values="0 0 0 0 0 0 0 0 0 0 0 0 0 0 0 0 0 0 127 0" result="hardAlpha"/>
<feOffset dy="33"/>
<feComposite in2="hardAlpha" operator="out"/>
<feColorMatrix type="matrix" values="0 0 0 0 0.665584 0 0 0 0 0.47187 0 0 0 0 0.303268 0 0 0 1 0"/>
<feBlend mode="normal" in2="BackgroundImageFix" result="effect1_dropShadow_122_24"/>
<feBlend mode="normal" in="SourceGraphic" in2="effect1_dropShadow_122_24" result="shape"/>
</filter>
</defs>
</svg>
